<svg width="116" height="32" viewBox="0 0 116 32" fill="none" xmlns="http://www.w3.org/2000/svg">
<path d="M29.3337 16H24.0003L20.0003 28L12.0003 4L8.00033 16H2.66699" stroke="#3B82F6" stroke-width="2.66667" stroke-linecap="round" stroke-linejoin="round"/>
<path d="M41.709 23V8.9082H50.9375V11.3398H44.6582V15.1191H50.3906V17.4531H44.6582V23H41.709ZM55.8203 23.166C53.7695 23.166 52.3145 21.8965 52.3145 19.9434V19.9238C52.3145 17.9902 53.8086 16.8574 56.4844 16.7012L59.082 16.5449V15.6562C59.082 14.7285 58.4473 14.2012 57.2754 14.2012C56.25 14.2012 55.5957 14.5625 55.3711 15.1973L55.3516 15.2363H52.7148L52.7246 15.1484C52.9492 13.2637 54.7266 12.0137 57.4316 12.0137C60.2832 12.0137 61.8945 13.3613 61.8945 15.6562V23H59.082V21.5742H58.9062C58.3594 22.5703 57.2266 23.166 55.8203 23.166ZM55.0977 19.7676C55.0977 20.5879 55.791 21.0859 56.7773 21.0859C58.0957 21.0859 59.082 20.2168 59.082 19.084V18.293L56.9141 18.4297C55.6934 18.5078 55.0977 18.9668 55.0977 19.748V19.7676ZM68.9648 23.2246C66.0449 23.2246 64.3848 21.916 64.1797 20.0703L64.1699 20.0312H66.9727L66.9922 20.0703C67.2168 20.7344 67.8711 21.2129 68.9941 21.2129C70.0879 21.2129 70.8301 20.7441 70.8301 20.0312V20.0117C70.8301 19.4355 70.4004 19.0742 69.3066 18.8301L67.5098 18.4492C65.459 18.0098 64.4434 17.0039 64.4434 15.3926V15.3828C64.4434 13.3613 66.2402 12.0137 68.9258 12.0137C71.748 12.0137 73.3105 13.4199 73.4277 15.1484V15.1875H70.7812L70.7715 15.1387C70.6152 14.5625 69.9805 14.0254 68.916 14.0254C67.9297 14.0254 67.2266 14.4844 67.2266 15.207V15.2168C67.2266 15.793 67.627 16.125 68.7402 16.3691L70.5273 16.75C72.6758 17.209 73.6816 18.1074 73.6816 19.6992V19.709C73.6816 21.8379 71.7188 23.2246 68.9648 23.2246ZM80.4199 23.0391C77.8027 23.0391 76.748 22.1895 76.748 20.0996V14.3965H75.0879V12.248H76.748V9.67969H79.6289V12.248H81.8457V14.3965H79.6289V19.4453C79.6289 20.4121 80.0391 20.8418 81.0059 20.8418C81.377 20.8418 81.5723 20.8223 81.8457 20.793V22.9121C81.4941 22.9805 80.9668 23.0391 80.4199 23.0391ZM90.4883 23.3613C86.4062 23.3613 83.877 20.5293 83.877 15.959V15.9395C83.877 11.3691 86.3965 8.54688 90.4883 8.54688C93.8281 8.54688 96.3281 10.6758 96.6016 13.6543V13.7715H93.7305V13.7031C93.4277 12.1211 92.168 11.0469 90.4883 11.0469C88.2715 11.0469 86.8945 12.9121 86.8945 15.9395V15.959C86.8945 18.9863 88.2715 20.8613 90.498 20.8613C92.1875 20.8613 93.4082 19.875 93.7207 18.3711L93.7402 18.293H96.6113L96.6016 18.4004C96.2988 21.3496 93.8867 23.3613 90.4883 23.3613ZM99.3262 23V8.9082H102.275V20.5684H108.545V23H99.3262ZM111.221 23V8.9082H114.17V23H111.221Z" fill="white"/>
</svg>
