<svg width="18" height="20" viewBox="0 0 18 20" fill="none" xmlns="http://www.w3.org/2000/svg">
<path d="M8.89093 15.9274C10.4629 15.9274 11.9705 15.3029 13.082 14.1914C14.1935 13.0798 14.818 11.5723 14.818 10.0003C14.818 8.42835 14.1935 6.92078 13.082 5.80924C11.9705 4.6977 10.4629 4.07324 8.89093 4.07324C7.31898 4.07324 5.81141 4.6977 4.69986 5.80924C3.58832 6.92078 2.96387 8.42835 2.96387 10.0003C2.96387 11.5723 3.58832 13.0798 4.69986 14.1914C5.81141 15.3029 7.31898 15.9274 8.89093 15.9274Z" stroke="#9CA3AF" stroke-width="1.48177" stroke-linecap="round" stroke-linejoin="round"/>
<path d="M8.88997 11.4821C9.28296 11.4821 9.65985 11.326 9.93774 11.0481C10.2156 10.7702 10.3717 10.3933 10.3717 10.0003C10.3717 9.60733 10.2156 9.23044 9.93774 8.95255C9.65985 8.67467 9.28296 8.51855 8.88997 8.51855C8.49698 8.51855 8.12009 8.67467 7.8422 8.95255C7.56432 9.23044 7.4082 9.60733 7.4082 10.0003C7.4082 10.3933 7.56432 10.7702 7.8422 11.0481C8.12009 11.326 8.49698 11.4821 8.88997 11.4821Z" stroke="#9CA3AF" stroke-width="1.48177" stroke-linecap="round" stroke-linejoin="round"/>
<path d="M8.88965 2.59082V4.07259" stroke="#9CA3AF" stroke-width="1.48177" stroke-linecap="round" stroke-linejoin="round"/>
<path d="M8.88965 17.4085V15.9268" stroke="#9CA3AF" stroke-width="1.48177" stroke-linecap="round" stroke-linejoin="round"/>
<path d="M12.5944 16.4165L11.8535 15.1348" stroke="#9CA3AF" stroke-width="1.48177" stroke-linecap="round" stroke-linejoin="round"/>
<path d="M8.14908 8.71831L5.18555 3.58398" stroke="#9CA3AF" stroke-width="1.48177" stroke-linecap="round" stroke-linejoin="round"/>
<path d="M15.3061 13.7048L14.0244 12.9639" stroke="#9CA3AF" stroke-width="1.48177" stroke-linecap="round" stroke-linejoin="round"/>
<path d="M2.47461 6.2959L3.75634 7.03678" stroke="#9CA3AF" stroke-width="1.48177" stroke-linecap="round" stroke-linejoin="round"/>
<path d="M10.3721 10H16.2991" stroke="#9CA3AF" stroke-width="1.48177" stroke-linecap="round" stroke-linejoin="round"/>
<path d="M1.48145 10H2.96321" stroke="#9CA3AF" stroke-width="1.48177" stroke-linecap="round" stroke-linejoin="round"/>
<path d="M15.3061 6.2959L14.0244 7.03678" stroke="#9CA3AF" stroke-width="1.48177" stroke-linecap="round" stroke-linejoin="round"/>
<path d="M2.47461 13.7048L3.75634 12.9639" stroke="#9CA3AF" stroke-width="1.48177" stroke-linecap="round" stroke-linejoin="round"/>
<path d="M12.5944 3.58398L11.8535 4.86571" stroke="#9CA3AF" stroke-width="1.48177" stroke-linecap="round" stroke-linejoin="round"/>
<path d="M8.14908 11.2812L5.18555 16.4156" stroke="#9CA3AF" stroke-width="1.48177" stroke-linecap="round" stroke-linejoin="round"/>
</svg>
