<svg width="16" height="16" viewBox="0 0 16 16" fill="none" xmlns="http://www.w3.org/2000/svg">
<path d="M12.0003 2.66699H4.00033C3.26395 2.66699 2.66699 3.26395 2.66699 4.00033V12.0003C2.66699 12.7367 3.26395 13.3337 4.00033 13.3337H12.0003C12.7367 13.3337 13.3337 12.7367 13.3337 12.0003V4.00033C13.3337 3.26395 12.7367 2.66699 12.0003 2.66699Z" stroke="#9CA3AF" stroke-width="1.33333" stroke-linecap="round" stroke-linejoin="round"/>
<path d="M10 6H6V10H10V6Z" stroke="#9CA3AF" stroke-width="1.33333" stroke-linecap="round" stroke-linejoin="round"/>
<path d="M10 1.33301V2.66634" stroke="#9CA3AF" stroke-width="1.33333" stroke-linecap="round" stroke-linejoin="round"/>
<path d="M10 13.333V14.6663" stroke="#9CA3AF" stroke-width="1.33333" stroke-linecap="round" stroke-linejoin="round"/>
<path d="M1.33301 10H2.66634" stroke="#9CA3AF" stroke-width="1.33333" stroke-linecap="round" stroke-linejoin="round"/>
<path d="M1.33301 6H2.66634" stroke="#9CA3AF" stroke-width="1.33333" stroke-linecap="round" stroke-linejoin="round"/>
<path d="M13.333 10H14.6663" stroke="#9CA3AF" stroke-width="1.33333" stroke-linecap="round" stroke-linejoin="round"/>
<path d="M13.333 6H14.6663" stroke="#9CA3AF" stroke-width="1.33333" stroke-linecap="round" stroke-linejoin="round"/>
<path d="M6 1.33301V2.66634" stroke="#9CA3AF" stroke-width="1.33333" stroke-linecap="round" stroke-linejoin="round"/>
<path d="M6 13.333V14.6663" stroke="#9CA3AF" stroke-width="1.33333" stroke-linecap="round" stroke-linejoin="round"/>
</svg>
