<svg width="20" height="20" viewBox="0 0 20 20" fill="none" xmlns="http://www.w3.org/2000/svg">
<path d="M10.692 1.81631C10.4749 1.71727 10.239 1.66602 10.0004 1.66602C9.76172 1.66602 9.52585 1.71727 9.30871 1.81631L2.16704 5.06631C2.01917 5.13152 1.89344 5.23831 1.80518 5.37369C1.71692 5.50907 1.66992 5.6672 1.66992 5.82881C1.66992 5.99043 1.71692 6.14855 1.80518 6.28393C1.89344 6.41931 2.01917 6.52611 2.16704 6.59131L9.31704 9.84965C9.53418 9.94869 9.77005 9.99994 10.0087 9.99994C10.2474 9.99994 10.4832 9.94869 10.7004 9.84965L17.8504 6.59965C17.9983 6.53444 18.124 6.42765 18.2122 6.29227C18.3005 6.15688 18.3475 5.99876 18.3475 5.83715C18.3475 5.67553 18.3005 5.51741 18.2122 5.38203C18.124 5.24665 17.9983 5.13985 17.8504 5.07465L10.692 1.81631Z" stroke="#9CA3AF" stroke-width="1.66667" stroke-linecap="round" stroke-linejoin="round"/>
<path d="M18.3337 14.708L10.692 18.1747C10.4749 18.2737 10.239 18.325 10.0003 18.325C9.76167 18.325 9.52579 18.2737 9.30866 18.1747L1.66699 14.708" stroke="#9CA3AF" stroke-width="1.66667" stroke-linecap="round" stroke-linejoin="round"/>
<path d="M18.3337 10.542L10.692 14.0087C10.4749 14.1077 10.239 14.159 10.0003 14.159C9.76167 14.159 9.52579 14.1077 9.30866 14.0087L1.66699 10.542" stroke="#9CA3AF" stroke-width="1.66667" stroke-linecap="round" stroke-linejoin="round"/>
</svg>
