<svg width="20" height="20" viewBox="0 0 20 20" fill="none" xmlns="http://www.w3.org/2000/svg">
<path d="M16.667 11.667H3.33366C2.41318 11.667 1.66699 12.4132 1.66699 13.3337V16.667C1.66699 17.5875 2.41318 18.3337 3.33366 18.3337H16.667C17.5875 18.3337 18.3337 17.5875 18.3337 16.667V13.3337C18.3337 12.4132 17.5875 11.667 16.667 11.667Z" stroke="#9CA3AF" stroke-width="1.66667" stroke-linecap="round" stroke-linejoin="round"/>
<path d="M5.00833 15H5" stroke="#9CA3AF" stroke-width="1.66667" stroke-linecap="round" stroke-linejoin="round"/>
<path d="M8.34134 15H8.33301" stroke="#9CA3AF" stroke-width="1.66667" stroke-linecap="round" stroke-linejoin="round"/>
<path d="M12.5 8.33301V11.6663" stroke="#9CA3AF" stroke-width="1.66667" stroke-linecap="round" stroke-linejoin="round"/>
<path d="M14.8671 5.97469C14.5575 5.66477 14.1899 5.41891 13.7852 5.25116C13.3805 5.08341 12.9468 4.99707 12.5087 4.99707C12.0707 4.99707 11.6369 5.08341 11.2323 5.25116C10.8276 5.41891 10.46 5.66477 10.1504 5.97469" stroke="#9CA3AF" stroke-width="1.66667" stroke-linecap="round" stroke-linejoin="round"/>
<path d="M17.217 3.61709C15.9669 2.3678 14.2718 1.66602 12.5045 1.66602C10.7371 1.66602 9.04211 2.3678 7.79199 3.61709" stroke="#9CA3AF" stroke-width="1.66667" stroke-linecap="round" stroke-linejoin="round"/>
</svg>
