<svg width="16" height="16" viewBox="0 0 16 16" fill="none" xmlns="http://www.w3.org/2000/svg">
<path d="M14.6663 8H1.33301" stroke="#9CA3AF" stroke-width="1.33333" stroke-linecap="round" stroke-linejoin="round"/>
<path d="M3.63301 3.40699L1.33301 8.00033V12.0003C1.33301 12.3539 1.47348 12.6931 1.72353 12.9431C1.97358 13.1932 2.31272 13.3337 2.66634 13.3337H13.333C13.6866 13.3337 14.0258 13.1932 14.2758 12.9431C14.5259 12.6931 14.6663 12.3539 14.6663 12.0003V8.00033L12.3663 3.40699C12.256 3.18485 12.0858 2.99791 11.875 2.86718C11.6642 2.73645 11.4211 2.66712 11.173 2.66699H4.82634C4.57829 2.66712 4.33518 2.73645 4.12437 2.86718C3.91356 2.99791 3.74339 3.18485 3.63301 3.40699Z" stroke="#9CA3AF" stroke-width="1.33333" stroke-linecap="round" stroke-linejoin="round"/>
<path d="M4 10.667H4.00667" stroke="#9CA3AF" stroke-width="1.33333" stroke-linecap="round" stroke-linejoin="round"/>
<path d="M6.66699 10.667H6.67366" stroke="#9CA3AF" stroke-width="1.33333" stroke-linecap="round" stroke-linejoin="round"/>
</svg>
